<?xml version="1.0" encoding="iso-8859-1"?>
<!-- Generator: Adobe Illustrator 16.0.0, SVG Export Plug-In . SVG Version: 6.00 Build 0)  -->
<!DOCTYPE svg PUBLIC "-//W3C//DTD SVG 1.1//EN" "http://www.w3.org/Graphics/SVG/1.1/DTD/svg11.dtd">
<svg xmlns="http://www.w3.org/2000/svg" xmlns:xlink="http://www.w3.org/1999/xlink" version="1.1" id="Capa_1" x="0px" y="0px" width="64px" height="64px" viewBox="0 0 97.75 97.75" style="enable-background:new 0 0 97.75 97.75;" xml:space="preserve">
<g>
	<g>
		<path d="M48.875,0C21.883,0,0,21.883,0,48.875S21.883,97.75,48.875,97.75S97.75,75.867,97.75,48.875S75.867,0,48.875,0z     M43.332,76.779c-14.294,0-28.904-6.928-28.904-18.32c0-5.957,3.773-12.844,10.271-19.344c8.68-8.674,18.799-12.627,22.604-8.818    c1.679,1.678,1.841,4.582,0.763,8.051c-0.563,1.748,1.639,0.779,1.639,0.783c7.016-2.938,13.135-3.109,15.37,0.086    c1.192,1.703,1.079,4.09-0.021,6.859c-0.509,1.273,0.157,1.473,1.127,1.762c3.952,1.227,8.351,4.189,8.351,9.412    C74.531,65.893,62.068,76.779,43.332,76.779z M69.206,40.553c0.463-1.428,0.172-3.055-0.905-4.25    c-1.076-1.191-2.668-1.645-4.136-1.334v-0.002c-1.224,0.266-2.431-0.52-2.69-1.742c-0.266-1.229,0.518-2.436,1.744-2.697    c3.002-0.637,6.254,0.291,8.455,2.732c2.208,2.443,2.797,5.771,1.854,8.689c-0.385,1.195-1.664,1.846-2.857,1.465    c-1.193-0.389-1.846-1.67-1.461-2.861H69.206z M82.438,44.828c0,0.002,0,0.008,0,0.01c-0.449,1.383-1.937,2.141-3.321,1.693    c-1.39-0.447-2.148-1.932-1.699-3.32l-0.001-0.004c1.377-4.26,0.504-9.119-2.71-12.682c-3.218-3.563-7.96-4.926-12.343-3.994    c-1.426,0.305-2.826-0.605-3.131-2.029s0.604-2.826,2.029-3.131h0.002c6.16-1.309,12.834,0.602,17.357,5.619    C83.148,32,84.37,38.832,82.438,44.828z" fill="#de1212"/>
		<path d="M43.444,57.424c-0.678-0.27-1.526,0.057-1.924,0.723c-0.386,0.672-0.173,1.435,0.507,1.713    c0.69,0.285,1.573-0.043,1.972-0.727C44.38,58.447,44.133,57.676,43.444,57.424z" fill="#de1212"/>
		<path d="M40.688,45.58c-11.402,1.129-20.051,8.111-19.311,15.598c0.741,7.488,10.588,12.643,21.991,11.518    c11.405-1.127,20.05-8.11,19.312-15.602C61.939,49.607,52.096,44.451,40.688,45.58z M50.695,63.24    c-2.327,5.264-9.021,8.07-14.702,6.24c-5.482-1.771-7.803-7.187-5.402-12.063c2.356-4.783,8.492-7.487,13.918-6.074    C50.126,52.795,52.992,58.094,50.695,63.24z" fill="#de1212"/>
		<path d="M39.091,59.229c-1.767-0.739-4.049,0.021-5.138,1.73c-1.104,1.715-0.587,3.76,1.167,4.559    c1.779,0.813,4.141,0.041,5.244-1.719C41.448,62.02,40.876,59.99,39.091,59.229z" fill="#de1212"/>
	</g>
</g>
<g>
</g>
<g>
</g>
<g>
</g>
<g>
</g>
<g>
</g>
<g>
</g>
<g>
</g>
<g>
</g>
<g>
</g>
<g>
</g>
<g>
</g>
<g>
</g>
<g>
</g>
<g>
</g>
<g>
</g>
</svg>
